<?xml version="1.0" encoding="UTF-8"?>
<svg version="1.1" xmlns="http://www.w3.org/2000/svg" width="360" height="360">
<path d="M0 0 C1.06276464 -0.00453111 2.12552929 -0.00906223 3.22049892 -0.01373065 C6.76991784 -0.02635735 10.31918298 -0.02475536 13.86862183 -0.02310181 C16.41848446 -0.0290882 18.96834529 -0.035894 21.51820374 -0.04345703 C27.7194976 -0.05928157 33.92073546 -0.06556505 40.12204762 -0.06668179 C45.16703213 -0.0676341 50.21200415 -0.07175353 55.25698471 -0.07808304 C69.58190149 -0.0956876 83.90678837 -0.10492338 98.23171605 -0.10342209 C99.00312054 -0.10334218 99.77452503 -0.10326227 100.56930542 -0.10317993 C101.72783657 -0.10305729 101.72783657 -0.10305729 102.90977238 -0.10293217 C115.41581966 -0.10211995 127.9217463 -0.12124352 140.42775871 -0.14945666 C153.28988929 -0.17824255 166.15196116 -0.19199376 179.01412475 -0.19026911 C186.22672426 -0.18960708 193.43919737 -0.19501687 200.65176773 -0.21662521 C207.43982729 -0.23683237 214.22757675 -0.23610524 221.01566505 -0.22159195 C223.49958372 -0.21950746 225.98351921 -0.22418307 228.46740913 -0.23631287 C250.30413786 -0.33599736 267.43373739 2.20075884 283.97360229 17.89242554 C295.3707356 29.92273292 300.53798765 44.67879802 300.49775696 61.03709412 C300.50299364 62.09915319 300.50823032 63.16121227 300.51362568 64.25545496 C300.5285877 67.80253375 300.52933001 71.34946779 300.52999878 74.89657593 C300.53762291 77.44481651 300.54605085 79.9930548 300.55522156 82.54129028 C300.57715087 89.45689905 300.58598591 96.37245789 300.591048 103.28809667 C300.59431244 107.6126922 300.60083946 111.9372789 300.60804939 116.26186943 C300.62760865 128.25384896 300.64401643 140.24582031 300.64692593 152.23781681 C300.6471135 153.00430895 300.64730107 153.77080109 300.64749432 154.56052026 C300.64786055 156.1141481 300.64822425 157.66777594 300.64858543 159.22140379 C300.64876824 159.99254555 300.64895105 160.76368732 300.6491394 161.55819702 C300.64941023 162.7163347 300.64941023 162.7163347 300.64968652 163.8978691 C300.65322502 176.39679993 300.68023007 188.89555814 300.71763729 201.39442915 C300.75580435 214.25091513 300.77508402 227.10731565 300.77538544 239.9638595 C300.77596817 247.17261304 300.78434059 254.38116069 300.8133831 261.58986092 C300.84059697 268.3755064 300.84173079 275.16067729 300.82572746 281.94638062 C300.82391827 284.42827175 300.83055541 286.91018662 300.84654617 289.3920269 C300.9575085 307.74179491 299.56757202 322.11035674 288.22360229 337.26742554 C287.36508667 338.43531616 287.36508667 338.43531616 286.48922729 339.62680054 C277.58692383 350.65956979 264.07359388 357.81622604 250.22360229 360.26742554 C248.67374282 360.35499618 247.12086992 360.39810482 245.56854248 360.40164661 C244.65743808 360.40610446 243.74633368 360.4105623 242.80762005 360.41515523 C241.31946144 360.41487869 241.31946144 360.41487869 239.80123901 360.41459656 C238.74033208 360.41827325 237.67942514 360.42194993 236.58636951 360.42573804 C233.02533805 360.43676604 229.46433578 360.44061726 225.90328979 360.44442749 C223.3522482 360.45069286 220.80120753 360.45733973 218.25016785 360.46434021 C210.59027765 360.48355968 202.93039259 360.49416778 195.27048445 360.503068 C191.65895979 360.50745592 188.04743659 360.51282146 184.43591309 360.51805687 C172.42260543 360.5350672 160.40929868 360.54955957 148.39598083 360.55680561 C145.28041584 360.55871536 142.16485085 360.56063571 139.04928589 360.56259155 C138.27497298 360.56307529 137.50066006 360.56355903 136.70288312 360.56405743 C124.17010949 360.57235105 111.63743151 360.59767751 99.10469961 360.63017223 C86.22346528 360.66329688 73.34227947 360.68125929 60.46100235 360.68444985 C53.23440873 360.68661007 46.00795456 360.69528678 38.78140259 360.72091103 C31.97862419 360.74497758 25.17613931 360.74840991 18.373312 360.73814964 C15.8825211 360.73765506 13.39171772 360.74395246 10.90096474 360.75770569 C-9.991897 360.8665738 -26.68362716 358.64322474 -42.49514771 343.60726929 C-54.3325564 331.46581756 -60.09204299 317.36336679 -60.05055237 300.50448608 C-60.05578905 299.44313257 -60.06102573 298.38177906 -60.06642109 297.28826332 C-60.08138311 293.74351849 -60.08212542 290.19891849 -60.08279419 286.65414429 C-60.09041837 284.10752622 -60.09884631 281.56091045 -60.10801697 279.01429749 C-60.12994693 272.10275368 -60.13878155 265.19125982 -60.14384341 258.27968597 C-60.14710806 253.95709276 -60.15363524 249.63450837 -60.1608448 245.31192017 C-60.18040491 233.32423186 -60.19681194 221.33655173 -60.19972134 209.34884644 C-60.19990891 208.58260586 -60.20009648 207.81636528 -60.20028973 207.0269053 C-60.20065596 205.4737978 -60.20101966 203.9206903 -60.20138084 202.3675828 C-60.20156365 201.59670375 -60.20174646 200.82582471 -60.20193481 200.03158569 C-60.20211536 199.25975622 -60.20229591 198.48792674 -60.20248193 197.69270849 C-60.20601964 185.20091968 -60.23301935 172.70930366 -60.2704327 160.21757472 C-60.30861083 147.36673397 -60.32787952 134.51597874 -60.32818085 121.66508007 C-60.32876337 114.46020697 -60.33712171 107.25553993 -60.36617851 100.05072021 C-60.39341058 93.26753395 -60.39451687 86.48482237 -60.37852287 79.70157814 C-60.37671496 77.22171959 -60.38333907 74.74183722 -60.39934158 72.26202965 C-60.53174101 50.39952445 -57.67535907 33.10841609 -42.19046021 16.58773804 C-30.36435719 5.22090116 -16.192104 -0.0510339 0 0 Z " fill="#BD0000" transform="translate(59.776397705078125,-0.267425537109375)"/>
<path d="M0 0 C6.73179296 1.34635859 12.43624297 2.69513838 18.69140625 5.14453125 C29.66957015 9.31163481 40.78953045 13.00425015 51.9375 16.6875 C53.91741326 17.344113 55.89723133 18.00101309 57.87695312 18.65820312 C63.25047089 20.44131607 68.62509535 22.22107275 74 24 C81.10732184 26.35232494 88.19640382 28.74091678 95.25 31.25 C96.00667969 31.518125 96.76335937 31.78625 97.54296875 32.0625 C99.36233235 32.70733773 101.18122121 33.35351465 103 34 C103.40748017 48.98621513 102.73582422 63.75429829 101.5625 78.6875 C101.46127335 79.99087814 101.46127335 79.99087814 101.35800171 81.32058716 C101.16164307 83.82223344 100.95942871 86.32330988 100.75390625 88.82421875 C100.69343109 89.57542999 100.63295593 90.32664124 100.57064819 91.10061646 C100.25584557 94.7946706 99.82350328 98.38324463 99 102 C99.60585938 102.04898438 100.21171875 102.09796875 100.8359375 102.1484375 C108.01766295 102.78926839 115.13826979 103.7127566 122 106 C121.71125 105.25234375 121.4225 104.5046875 121.125 103.734375 C120.75375 102.74953125 120.3825 101.7646875 120 100.75 C119.62875 99.77546875 119.2575 98.8009375 118.875 97.796875 C118 95 118 95 118 91 C119.32 91 120.64 91 122 91 C122 91.66 122 92.32 122 93 C123.155 93.33 124.31 93.66 125.5 94 C132.29805681 96.26246161 138.55509844 99.66639531 144.91162109 102.93164062 C148.26213958 104.6456772 151.631512 106.32163811 155 108 C157 109 159 110 161 111 C161 111.66 161 112.32 161 113 C161.56589844 113.10957031 162.13179687 113.21914062 162.71484375 113.33203125 C163.44832031 113.49058594 164.18179688 113.64914063 164.9375 113.8125 C166.03384766 114.03873047 166.03384766 114.03873047 167.15234375 114.26953125 C167.76207031 114.51058594 168.37179687 114.75164062 169 115 C169.33 115.99 169.66 116.98 170 118 C167.49236688 119.25381656 165.27733559 119.47369279 162.49609375 119.8671875 C161.37074219 120.02928711 160.24539063 120.19138672 159.0859375 120.35839844 C157.88195312 120.52887695 156.67796875 120.69935547 155.4375 120.875 C147.42628547 122.02518754 139.44982061 123.23188285 131.5 124.75 C125.25751625 125.89683167 119.33641672 126.36951026 113 126 C114.14430177 122.12697862 115.23320098 118.99736561 118 116 C118.66 116 119.32 116 120 116 C119.67 115.34 119.34 114.68 119 114 C116.81300263 113.41367363 114.59791875 112.93054426 112.375 112.5 C107.49906255 111.51983706 102.74898247 110.46992314 98 109 C98.01160156 109.87140625 98.02320313 110.7428125 98.03515625 111.640625 C98.07986992 117.54282953 98.04361587 123.36976075 97.5 129.25 C97.42007813 130.22195312 97.34015625 131.19390625 97.2578125 132.1953125 C97.0912293 134.00753579 96.88057389 135.81648463 96.6171875 137.6171875 C96.23283648 141.59708037 96.3593958 144.02173743 98.5859375 147.421875 C100.94198771 150.09263228 103.42059453 152.54411535 106 155 C107.52991951 156.51689465 109.05051166 158.04279311 110.57128906 159.56884766 C111.60384626 160.60302736 112.63964342 161.63398267 113.67871094 162.66162109 C117.15591562 166.10635993 120.44376364 169.65006217 123.59375 173.39453125 C125.09709935 175.18224154 125.09709935 175.18224154 127.5 177.1875 C129 179 129 179 128.83984375 181.28125 C127.81422728 184.60138518 126.26005412 186.63013285 124.0625 189.3125 C123.35222656 190.19550781 122.64195312 191.07851562 121.91015625 191.98828125 C121.27980469 192.65214844 120.64945313 193.31601563 120 194 C119.34 194 118.68 194 118 194 C117.78472656 194.52464844 117.56945312 195.04929688 117.34765625 195.58984375 C115.47140637 198.9453399 112.96517061 201.69094725 110.4375 204.5625 C109.34530925 205.81810225 108.25417303 207.07462253 107.1640625 208.33203125 C106.62555664 208.95287598 106.08705078 209.5737207 105.53222656 210.21337891 C103.41077766 212.68705053 101.35959442 215.21464102 99.3125 217.75 C96.3251688 221.40419461 93.32717241 225.04594938 90.25 228.625 C89.55390625 229.44226563 88.8578125 230.25953125 88.140625 231.1015625 C85.52185711 233.42404644 84.51156799 233.98054533 81 234 C77.78121321 233.10394701 74.71880237 231.87976195 71.625 230.625 C66.04569506 228.39327802 61.00574766 226.56657997 55 226 C52.50641618 231.22465181 51.0916111 236.39454722 49.75 242.01953125 C48.91887433 245.32239003 47.87789182 248.49505301 46.7421875 251.703125 C45.59742123 255.24587535 44.82636303 258.8822028 44.0390625 262.51953125 C42.49087104 266.21540184 39.87162505 268.14550767 36.2328186 269.80680847 C34.18043259 270.58466708 32.11574273 271.29329644 30.03125 271.98046875 C29.27332153 272.23878983 28.51539307 272.4971109 27.73449707 272.76325989 C26.13923554 273.30489942 24.54230922 273.84165773 22.94384766 274.3737793 C20.50448092 275.186008 18.07033047 276.01250255 15.63671875 276.84179688 C14.08101194 277.36802421 12.52503116 277.89344244 10.96875 278.41796875 C10.24465942 278.6627446 9.52056885 278.90752045 8.77453613 279.15971375 C1.60043401 281.54261595 -5.5926003 283.46913323 -13 281 C-13.495 279.515 -13.495 279.515 -14 278 C-14.66 277.67 -15.32 277.34 -16 277 C-15.505 275.02 -15.505 275.02 -15 273 C-16.98 272.67 -18.96 272.34 -21 272 C-21 272.66 -21 273.32 -21 274 C-22.32 274 -23.64 274 -25 274 C-25.02517837 269.45085022 -25.04307982 264.90174312 -25.05493164 260.35253906 C-25.05988508 258.81281831 -25.06664968 257.27310206 -25.07543945 255.73339844 C-25.13444841 245.11178583 -24.80001501 234.59230695 -24 224 C-20.34618837 223.91695883 -17.58779175 224.10305206 -14 225 C-12.02 222.69 -10.04 220.38 -8 218 C-4.32579134 218.30618405 -3.21864487 218.75771784 -0.6875 221.5625 C-0.130625 222.366875 0.42625 223.17125 1 224 C2.0828125 223.7834375 2.0828125 223.7834375 3.1875 223.5625 C5.0625 223.1875 6.9375 222.8125 8.8125 222.4375 C9.8953125 222.2209375 9.8953125 222.2209375 11 222 C11 220.68 11 219.36 11 218 C10.01 217.67 9.02 217.34 8 217 C6.83325195 215.44946289 6.83325195 215.44946289 5.73828125 213.47265625 C5.14370117 212.40821289 5.14370117 212.40821289 4.53710938 211.32226562 C4.13298828 210.57654297 3.72886719 209.83082031 3.3125 209.0625 C2.68891602 207.9497168 2.68891602 207.9497168 2.05273438 206.81445312 C-1 201.28544489 -1 201.28544489 -1 199 C-2.76957906 196.6716065 -3.81583516 196.04711194 -6.6875 195.3125 C-7.450625 195.209375 -8.21375 195.10625 -9 195 C-9.26296875 195.71929687 -9.5259375 196.43859375 -9.796875 197.1796875 C-11.03614383 200.08472678 -12.47729702 202.51385641 -14.25 205.125 C-15.09304687 206.39730469 -15.09304687 206.39730469 -15.953125 207.6953125 C-18.35772348 210.40278026 -20.75209955 211.46660667 -24 213 C-24.20047915 186.0624718 -24.38380811 159.12487447 -24.54658794 132.18709087 C-24.62256752 119.68007646 -24.70420907 107.17314638 -24.79907227 94.66625977 C-24.88171804 83.76825626 -24.95385011 72.87024323 -25.01323253 61.9720872 C-25.04506034 56.19888411 -25.08223701 50.42582492 -25.13199425 44.6527462 C-25.17862371 39.22332333 -25.21123707 33.79399991 -25.2329216 28.36442184 C-25.24339967 26.36768866 -25.25907737 24.37097523 -25.28024101 22.37432671 C-25.30829179 19.65583814 -25.31792499 16.93789823 -25.32279968 14.21928406 C-25.33542916 13.42259628 -25.34805863 12.62590851 -25.36107081 11.80507869 C-25.34296589 6.51823004 -25.34296589 6.51823004 -23.66732502 3.98629475 C-22 3 -22 3 -19 3 C-19 22.8 -19 42.6 -19 63 C-12.73 63 -6.46 63 0 63 C0 42.21 0 21.42 0 0 Z " fill="#030506" transform="translate(186,40)"/>
<path d="M0 0 C-0.00645255 0.7413834 -0.0129051 1.4827668 -0.01955318 2.24661636 C-0.17446924 20.32640176 -0.29013748 38.40605384 -0.3626852 56.48636246 C-0.39870578 65.23008381 -0.44777222 73.97336082 -0.52807617 82.71679688 C-0.59807523 90.34190997 -0.6430614 97.96670111 -0.65861946 105.59212661 C-0.66770728 109.62603499 -0.68890544 113.65902272 -0.7401104 117.69263458 C-0.78802297 121.49812768 -0.80220228 125.30233098 -0.79175377 129.10809708 C-0.793662 130.4963777 -0.8073503 131.88470651 -0.83443832 133.27272415 C-1.01512089 143.01834766 0.68069907 150.34959035 7 158 C12.36122379 161.79084012 17.66761648 163.19074757 24 165 C24 175.56 24 186.12 24 197 C18.10290184 199.62093252 12.30366615 202.12858246 6.25 204.3125 C5.52167969 204.58900391 4.79335937 204.86550781 4.04296875 205.15039062 C-2.88286908 207.64545198 -2.88286908 207.64545198 -7 206 C-10.59276075 203.52279967 -13.23727745 200.7185233 -15.9375 197.3125 C-16.71222656 196.34699219 -17.48695312 195.38148438 -18.28515625 194.38671875 C-18.92735107 193.58306885 -18.92735107 193.58306885 -19.58251953 192.76318359 C-22.31810055 189.36043366 -25.09885288 185.99466563 -27.875 182.625 C-28.47159424 181.89998291 -29.06818848 181.17496582 -29.68286133 180.42797852 C-34.30424157 174.82082073 -38.98195074 169.26433743 -43.6953125 163.734375 C-44.45585938 162.83203125 -45.21640625 161.9296875 -46 161 C-46.78117187 160.15953125 -47.56234375 159.3190625 -48.3671875 158.453125 C-50 156 -50 156 -50.0703125 153.5546875 C-48.63676707 150.13301338 -46.42333634 147.74731081 -43.875 145.125 C-43.37943604 144.5997876 -42.88387207 144.0745752 -42.37329102 143.53344727 C-39.10230883 140.08384489 -35.76786747 136.69626385 -32.33984375 133.40234375 C-30.76418322 131.83447324 -30.76418322 131.83447324 -29 129 C-28.34 129 -27.68 129 -27 129 C-27 128.34 -27 127.68 -27 127 C-25.1875 124.875 -25.1875 124.875 -23 123 C-22.01 123 -21.02 123 -20 123 C-16.29770418 113.33289425 -17.76326299 102.72103743 -19.14306641 92.67285156 C-21.55440791 74.82639064 -22.32159681 56.99155496 -22 39 C-23.2375 39.020625 -24.475 39.04125 -25.75 39.0625 C-29.89598563 39.0625 -33.07690358 38.30769881 -37 37 C-37 36.34 -37 35.68 -37 35 C-37.6084375 34.96261719 -38.216875 34.92523438 -38.84375 34.88671875 C-47.36290751 34.24778194 -55.63425561 32.64946426 -64 31 C-70.60011159 29.70340013 -77.06984546 28.71818877 -83.78515625 28.24609375 C-86 28 -86 28 -88 27 C-88.04254356 25.00045254 -88.04080783 22.99958364 -88 21 C-87 20 -87 20 -84.93359375 19.90234375 C-83.69802734 19.91974609 -83.69802734 19.91974609 -82.4375 19.9375 C-81.61121094 19.94652344 -80.78492187 19.95554687 -79.93359375 19.96484375 C-78.97646484 19.98224609 -78.97646484 19.98224609 -78 20 C-78.40992188 19.35933594 -78.81984375 18.71867187 -79.2421875 18.05859375 C-82.33815426 13.08875238 -84.75372504 8.73286482 -86 3 C-77.89276797 2.58066041 -68.22064615 3.1321789 -60.98046875 7.109375 C-58.13343068 8.38969981 -55.71958747 8.04091028 -52.625 7.875 C-48.70633516 7.84435122 -46.24905781 7.9049052 -42.5625 9.3125 C-37.87942146 14.22402139 -34 20.1123583 -34 27 C-38.68259379 26.64197472 -43.10373447 26.26269852 -47.625 24.9375 C-51.63048246 23.82486598 -54.86013509 23.85474158 -59 24 C-59 24.33 -59 24.66 -59 25 C-58.29504395 25.11069824 -57.59008789 25.22139648 -56.86376953 25.33544922 C-53.61717359 25.84650224 -50.37108819 26.3607321 -47.125 26.875 C-46.01640625 27.04902344 -44.9078125 27.22304687 -43.765625 27.40234375 C-42.12207031 27.66337891 -42.12207031 27.66337891 -40.4453125 27.9296875 C-39.45031738 28.08679199 -38.45532227 28.24389648 -37.43017578 28.40576172 C-32.93761217 29.1840464 -28.47093766 30.10581247 -24 31 C-24 23.41 -24 15.82 -24 8 C-8.06578027 -0.14415675 -8.06578027 -0.14415675 0 0 Z " fill="#060505" transform="translate(95,67)"/>
<path d="M0 0 C5.25750732 4.15709881 8.66922344 9.23703497 10.375 15.75 C11.20748188 24.74080428 11.87849433 32.6715333 6.10546875 40.18359375 C2.2677014 44.7404199 -1.53731306 49.19993769 -7.3125 51.125 C-9.74776603 51.24662188 -12.18672867 51.30044129 -14.625 51.3125 C-15.92050781 51.32667969 -17.21601563 51.34085938 -18.55078125 51.35546875 C-26.47312668 50.87009141 -30.98464485 47.71704631 -36.3125 42.125 C-41.19211813 35.93744298 -44.84059983 28.51407922 -44.1875 20.5 C-42.85468482 12.48922542 -39.25169256 6.56261008 -33.3125 1.125 C-22.22668864 -6.44625397 -11.63442388 -6.58552295 0 0 Z " fill="#BC0000" transform="translate(255.3125,180.875)"/>
<path d="M0 0 C0.66 0.33 1.32 0.66 2 1 C1.51126624 1.73551905 1.51126624 1.73551905 1.01265907 2.48589706 C-0.41841793 6.03879556 -0.24936952 9.45670477 -0.20254517 13.22564697 C-0.20017046 14.06210935 -0.19779576 14.89857173 -0.1953491 15.76038146 C-0.1849202 18.56727786 -0.16004239 21.37386046 -0.13525391 24.18066406 C-0.12482937 26.19107642 -0.11529384 28.20149355 -0.10658264 30.21191406 C-0.08038619 35.67439391 -0.04172012 41.13672341 -0.00085878 46.5991106 C0.03972478 52.30592234 0.06890094 58.01279195 0.09927368 63.71966553 C0.15854024 74.52854496 0.2281045 85.33733276 0.30134451 96.14612556 C0.38421998 108.45065531 0.45565206 120.75524311 0.52611041 133.05984926 C0.67131684 158.37331821 0.8309347 183.68667996 1 209 C6.5770535 205.50026229 8.98655086 202.24780721 12.00976562 196.42578125 C12.97265625 194.703125 12.97265625 194.703125 15 192 C17.74609375 191.609375 17.74609375 191.609375 20 192 C20.33 192.99 20.66 193.98 21 195 C21.99 195.33 22.98 195.66 24 196 C24.96875 198.140625 24.96875 198.140625 26 201 C27.13774723 203.26476099 28.30625144 205.51425058 29.5 207.75 C30.1084375 208.89984375 30.716875 210.0496875 31.34375 211.234375 C32.71092387 214.07945219 32.71092387 214.07945219 35 215 C35 216.32 35 217.64 35 219 C29.84 222 29.84 222 26.375 222 C23.23417221 220.6775462 21.91350456 218.76395103 20 216 C17.29068581 216.15481795 15.53415961 216.48172081 13.5546875 218.40234375 C12.32320358 219.89771708 11.1570163 221.4462924 10 223 C6.7 222.34 3.4 221.68 0 221 C0.00580078 221.94617188 0.01160156 222.89234375 0.01757812 223.8671875 C0.0608131 234.25422353 -0.16678657 244.61894795 -0.5 255 C-0.54840172 256.56509724 -0.59657974 258.13020141 -0.64453125 259.6953125 C-0.76045742 263.46362613 -0.8793571 267.23183455 -1 271 C0.32 271 1.64 271 3 271 C3 270.34 3 269.68 3 269 C4.98 269 6.96 269 9 269 C9 272 9 272 8 274 C9.32 274.66 10.64 275.32 12 276 C8 277 8 277 -2 274 C-2 183.91 -2 93.82 -2 1 C-1.34 0.67 -0.68 0.34 0 0 Z " fill="#190504" transform="translate(162,43)"/>
<path d="M0 0 C0 44.88 0 89.76 0 136 C-7 132 -7 132 -9 129 C-9.18963498 126.29356724 -9.2626023 123.69108432 -9.24291992 120.98486328 C-9.24481827 120.16603668 -9.24671661 119.34721008 -9.24867249 118.50357056 C-9.25239523 115.77572228 -9.24162477 113.04813756 -9.23046875 110.3203125 C-9.22927385 108.39541657 -9.22882444 106.47052006 -9.2290802 104.54562378 C-9.22751092 100.48171396 -9.21921017 96.41789164 -9.20581055 92.35400391 C-9.18920163 87.26371946 -9.18510131 82.17353337 -9.18559074 77.08322525 C-9.18531181 58.09965532 -9.11279668 39.11234585 -8.72371864 20.13225937 C-8.69201004 18.50998434 -8.6650861 16.88760804 -8.64317894 15.26517105 C-8.61162148 13.05363044 -8.56123574 10.84335905 -8.50512695 8.63232422 C-8.48013626 7.39263885 -8.45514557 6.15295349 -8.42939758 4.8757019 C-8.28769638 3.92672028 -8.14599518 2.97773865 -8 2 C-5 0 -5 0 0 0 Z " fill="#030606" transform="translate(143,51)"/>
<path d="M0 0 C0 30.36 0 60.72 0 92 C-3.3 91.01 -6.6 90.02 -10 89 C-10.82590551 72.89091903 -11.27126203 56.79911049 -11.35009766 40.66870117 C-11.36690297 38.15070514 -11.39449983 35.63276117 -11.43212891 33.11499023 C-11.4866825 29.41886588 -11.50870392 25.72381513 -11.5234375 22.02734375 C-11.54610687 20.90553207 -11.56877625 19.7837204 -11.59213257 18.62791443 C-11.56863731 10.00096214 -11.56863731 10.00096214 -8.63916016 6.39672852 C-1.59539574 0 -1.59539574 0 0 0 Z " fill="#0E0506" transform="translate(145,219)"/>
<path d="M0 0 C1.2065625 0.0309375 1.2065625 0.0309375 2.4375 0.0625 C2.46082961 15.30013064 2.47847948 30.53776046 2.48931217 45.77540493 C2.494475 52.85003187 2.50151744 59.92464774 2.51293945 66.99926758 C2.52394681 73.82028878 2.52977618 80.64129844 2.53237724 87.46232796 C2.53423205 90.07116948 2.5378537 92.68001033 2.54323006 95.28884697 C2.55043643 98.92882552 2.55149111 102.56875575 2.55102539 106.20874023 C2.55462067 107.29918137 2.55821594 108.3896225 2.56192017 109.5131073 C2.5605455 110.49893799 2.55917084 111.48476868 2.55775452 112.50047302 C2.55867631 113.36234946 2.5595981 114.2242259 2.56054783 115.11221981 C2.4375 117.0625 2.4375 117.0625 1.4375 118.0625 C-0.22867115 118.10313832 -1.89638095 118.105221 -3.5625 118.0625 C-3.58582961 102.82486936 -3.60347948 87.58723954 -3.61431217 72.34959507 C-3.619475 65.27496813 -3.62651744 58.20035226 -3.63793945 51.12573242 C-3.64894681 44.30471122 -3.65477618 37.48370156 -3.65737724 30.66267204 C-3.65923205 28.05383052 -3.6628537 25.44498967 -3.66823006 22.83615303 C-3.67543643 19.19617448 -3.67649111 15.55624425 -3.67602539 11.91625977 C-3.67962067 10.82581863 -3.68321594 9.7353775 -3.68692017 8.6118927 C-3.6855455 7.62606201 -3.68417084 6.64023132 -3.68275452 5.62452698 C-3.68367631 4.76265054 -3.6845981 3.9007741 -3.68554783 3.01278019 C-3.49506948 -0.00625851 -3.04259975 0.07420975 0 0 Z " fill="#050506" transform="translate(116.5625,58.9375)"/>
<path d="M0 0 C6.36868815 1.55634277 12.58948266 2.39344982 19.13110352 2.81640625 C15.87754251 9.22392946 10.54600799 11.97597591 4.13110352 14.81640625 C-1.9546873 16.03356441 -7.36974882 14.56598008 -12.86889648 11.81640625 C-12.86889648 11.15640625 -12.86889648 10.49640625 -12.86889648 9.81640625 C-13.85889648 10.14640625 -14.84889648 10.47640625 -15.86889648 10.81640625 C-24.36903513 11.4442574 -31.80695672 10.53064649 -39.86889648 7.81640625 C-39.86889648 6.82640625 -39.86889648 5.83640625 -39.86889648 4.81640625 C-38.29467773 3.31640625 -38.29467773 3.31640625 -36.18139648 1.81640625 C-35.4969043 1.32140625 -34.81241211 0.82640625 -34.10717773 0.31640625 C-33.36854492 -0.17859375 -32.62991211 -0.67359375 -31.86889648 -1.18359375 C-31.06709961 -1.74046875 -30.26530273 -2.29734375 -29.43920898 -2.87109375 C-21.2856082 -7.03463458 -8.38829906 -2.08979779 0 0 Z " fill="#080000" transform="translate(39.868896484375,102.18359375)"/>
<path d="M0 0 C1.12921875 0.15082031 1.12921875 0.15082031 2.28125 0.3046875 C2.61125 1.2946875 2.94125 2.2846875 3.28125 3.3046875 C4.27125 3.6346875 5.26125 3.9646875 6.28125 4.3046875 C7.25 6.4453125 7.25 6.4453125 8.28125 9.3046875 C9.41899723 11.56944849 10.58750144 13.81893808 11.78125 16.0546875 C12.3896875 17.20453125 12.998125 18.354375 13.625 19.5390625 C14.99217387 22.38413969 14.99217387 22.38413969 17.28125 23.3046875 C17.28125 24.6246875 17.28125 25.9446875 17.28125 27.3046875 C12.12125 30.3046875 12.12125 30.3046875 8.65625 30.3046875 C5.51542221 28.9822337 4.19475456 27.06863853 2.28125 24.3046875 C-0.42806419 24.45950545 -2.18459039 24.78640831 -4.1640625 26.70703125 C-5.39554642 28.20240458 -6.5617337 29.7509799 -7.71875 31.3046875 C-13.46875 29.5546875 -13.46875 29.5546875 -15.71875 27.3046875 C-15.56996004 21.35308925 -12.53882012 16.38804466 -9.71875 11.3046875 C-9.15414062 10.28503906 -8.58953125 9.26539063 -8.0078125 8.21484375 C-7.41742188 7.21324219 -6.82703125 6.21164063 -6.21875 5.1796875 C-5.6721875 4.24898437 -5.125625 3.31828125 -4.5625 2.359375 C-2.71875 0.3046875 -2.71875 0.3046875 0 0 Z " fill="#BA0000" transform="translate(179.71875,234.6953125)"/>
<path d="M0 0 C0.66 0.33 1.32 0.66 2 1 C1.67 1.33 1.34 1.66 1 2 C0.89177611 3.63183307 0.85314969 5.26832343 0.84178162 6.90370178 C0.8319928 7.96525986 0.82220398 9.02681793 0.81211853 10.12054443 C0.80636307 11.29514221 0.8006076 12.46973999 0.79467773 13.67993164 C0.78477814 14.90902756 0.77487854 16.13812347 0.76467896 17.40446472 C0.73842799 20.7844579 0.71659217 24.16442665 0.69667697 27.54445958 C0.67485541 31.07323999 0.64744805 34.60197678 0.62062073 38.13072205 C0.57064189 44.81719954 0.52572239 51.50370118 0.48259836 58.19022602 C0.43327026 65.800774 0.37833576 73.41127824 0.32291877 81.02178395 C0.20901907 96.6811489 0.10219752 112.34055404 0 128 C2.31 128 4.62 128 7 128 C7 130.31 7 132.62 7 135 C0.25 131.375 0.25 131.375 -2 128 C-2.18963498 125.29356724 -2.2626023 122.69108432 -2.24291992 119.98486328 C-2.24481827 119.16603668 -2.24671661 118.34721008 -2.24867249 117.50357056 C-2.25239523 114.77572228 -2.24162477 112.04813756 -2.23046875 109.3203125 C-2.22927385 107.39541657 -2.22882444 105.47052006 -2.2290802 103.54562378 C-2.22751092 99.48171396 -2.21921017 95.41789164 -2.20581055 91.35400391 C-2.18920165 86.26372449 -2.18507996 81.17354364 -2.18562126 76.08324051 C-2.18512728 56.25667585 -2.05895119 36.43782829 -1.55078125 16.6171875 C-1.53148245 15.81612705 -1.51218365 15.0150666 -1.49230003 14.1897316 C-1.43724083 11.9711702 -1.37508015 9.7529498 -1.30981445 7.53466797 C-1.27435013 6.28974579 -1.2388858 5.04482361 -1.2023468 3.76217651 C-1 1 -1 1 0 0 Z " fill="#1E0505" transform="translate(136,52)"/>
<path d="M0 0 C6.93344405 -0.38519134 13.46596172 1.05526359 20.25 2.375 C22.58851888 2.82043217 24.92706029 3.26574601 27.265625 3.7109375 C28.39033203 3.92717773 29.51503906 4.14341797 30.67382812 4.36621094 C35.44365425 5.27508268 40.22079917 6.1419769 45 7 C45.495 8.485 45.495 8.485 46 10 C38.31063268 10.31722118 31.56606616 9.51871623 24.125 7.625 C16.1039196 5.68603949 8.19435044 4.03588958 0 3 C0 2.01 0 1.02 0 0 Z " fill="#890000" transform="translate(13,95)"/>
<path d="M0 0 C0 0.99 0 1.98 0 3 C-1.32 2.67 -2.64 2.34 -4 2 C-4 2.66 -4 3.32 -4 4 C-4.71027344 4.19335938 -5.42054687 4.38671875 -6.15234375 4.5859375 C-7.07144531 4.84632812 -7.99054688 5.10671875 -8.9375 5.375 C-10.31228516 5.75785156 -10.31228516 5.75785156 -11.71484375 6.1484375 C-14.16745087 6.76660104 -14.16745087 6.76660104 -15 9 C-17.64 9 -20.28 9 -23 9 C-23 9.66 -23 10.32 -23 11 C-21.68 10.67 -20.36 10.34 -19 10 C-19.33 13.63 -19.66 17.26 -20 21 C-20.66 21 -21.32 21 -22 21 C-22 24.63 -22 28.26 -22 32 C-22.33 32 -22.66 32 -23 32 C-24.06309567 26.82682579 -24.11693938 21.87630664 -24.0625 16.625 C-24.05798828 15.79355469 -24.05347656 14.96210937 -24.04882812 14.10546875 C-24.03713164 12.07028103 -24.01919935 10.03513077 -24 8 C-22.12762629 7.03654556 -20.2519701 6.07946898 -18.375 5.125 C-17.33085938 4.59132813 -16.28671875 4.05765625 -15.2109375 3.5078125 C-9.9837607 1.0532015 -5.79932783 -0.27615847 0 0 Z " fill="#130601" transform="translate(95,67)"/>
<path d="M0 0 C4.22141034 1.50764655 5.80349864 4.21292869 8 8 C10.39961927 15.30793141 9.61459724 23.88248528 7 31 C6.690625 31.9075 6.38125 32.815 6.0625 33.75 C4.96582642 36.07236757 3.7928034 37.2071966 2 39 C1.690625 39.86625 1.38125 40.7325 1.0625 41.625 C0 44 0 44 -2 44.9375 C-2.66 44.958125 -3.32 44.97875 -4 45 C-4.66 44.34 -5.32 43.68 -6 43 C-5.52949219 42.55269531 -5.05898437 42.10539062 -4.57421875 41.64453125 C0.8229631 36.40378945 4.69226406 32.00965481 5.16796875 24.265625 C5.22656497 15.21836902 3.76992375 8.22528818 0 0 Z " fill="#220400" transform="translate(260,185)"/>
<path d="M0 0 C0.66 0.33 1.32 0.66 2 1 C1.07724919 4.10379819 0.60656045 5.64617307 -2.25 7.3125 C-5.01231695 9.00755813 -5.9882164 10.16021321 -7.8125 12.75 C-11.82158287 18.3647879 -16.6798713 23.10678553 -23 26 C-21.69311157 23.10455263 -20.31032308 21.07656883 -18.03125 18.87109375 C-17.46019531 18.31099609 -16.88914062 17.75089844 -16.30078125 17.17382812 C-15.70652344 16.60083984 -15.11226562 16.02785156 -14.5 15.4375 C-13.32065437 14.29269053 -12.14348348 13.14563543 -10.96875 11.99609375 C-10.18661133 11.24090454 -10.18661133 11.24090454 -9.38867188 10.47045898 C-7.7743892 8.84358092 -7.7743892 8.84358092 -6 6 C-5.34 6 -4.68 6 -4 6 C-4 5.34 -4 4.68 -4 4 C-2.70766393 2.62689293 -1.37562854 1.28965176 0 0 Z " fill="#210500" transform="translate(72,190)"/>
<path d="M0 0 C1.18335938 0.29583984 1.18335938 0.29583984 2.390625 0.59765625 C2.92171875 0.73042969 3.4528125 0.86320312 4 1 C4.33 0.34 4.66 -0.32 5 -1 C5.33 -0.01 5.66 0.98 6 2 C-0.67629136 3.16570167 -6.38314649 2.85255206 -13 1.6875 C-13.754021 1.55754639 -14.50804199 1.42759277 -15.28491211 1.29370117 C-20.73713123 0.26286877 -20.73713123 0.26286877 -23 -2 C-16.16133551 -5.41933225 -6.8876065 -1.75834399 0 0 Z " fill="#810000" transform="translate(57,93)"/>
<path d="M0 0 C0.66 0 1.32 0 2 0 C2.34057669 9.81996112 1.28846906 19.29046527 0 29 C-0.66 29 -1.32 29 -2 29 C-2.27538262 19.07092668 -1.53653322 9.79539929 0 0 Z " fill="#1F0500" transform="translate(285,113)"/>
<path d="M0 0 C2.34908936 2.34908936 2.71718891 3.97258659 3.6875 7.125 C5.45837378 12.22967783 7.76962769 15.58713259 11.51171875 19.44140625 C13 21 13 21 14 23 C9.09377299 21.31786503 5.60716995 18.96431883 2.3125 14.9375 C0.33229962 10.50562297 -0.51449839 5.82264931 -1 1 C-0.67 0.67 -0.34 0.34 0 0 Z " fill="#270601" transform="translate(211,206)"/>
<path d="M0 0 C0.66 0.99 1.32 1.98 2 3 C4.35367713 3.6878236 4.35367713 3.6878236 7 4 C9.6875 4.375 9.6875 4.375 12 5 C12.99 6.485 12.99 6.485 14 8 C11.20031864 9.11853298 10.09143486 9.03247339 7.1953125 8.00390625 C6.18210938 7.52824219 5.16890625 7.05257813 4.125 6.5625 C-0.17940102 4.54240387 -3.23085457 3.70815677 -8 4 C-8 3.01 -8 2.02 -8 1 C-5.10765685 0.17361624 -3.11257569 0 0 0 Z " fill="#180402" transform="translate(248,262)"/>
<path d="M0 0 C0.99 0 1.98 0 3 0 C5.19065016 2.45352818 6.554714 5.0715366 8 8 C8.35320312 8.67160156 8.70640625 9.34320313 9.0703125 10.03515625 C9.59238281 11.03869141 9.59238281 11.03869141 10.125 12.0625 C10.47820312 12.73410156 10.83140625 13.40570313 11.1953125 14.09765625 C12 16 12 16 12 19 C8.59055395 17.86351798 8.39306229 17.46011714 6.73828125 14.47265625 C6.34189453 13.76302734 5.94550781 13.05339844 5.53710938 12.32226562 C5.13298828 11.57654297 4.72886719 10.83082031 4.3125 10.0625 C3.68891602 8.9497168 3.68891602 8.9497168 3.05273438 7.81445312 C0 2.28544489 0 2.28544489 0 0 Z " fill="#200702" transform="translate(185,239)"/>
<path d="M0 0 C0.66 0.66 1.32 1.32 2 2 C1.76323225 6.48331185 -0.23847462 8.95056502 -3.0625 12.3125 C-3.79597656 13.19550781 -4.52945312 14.07851562 -5.28515625 14.98828125 C-6.13400391 15.98408203 -6.13400391 15.98408203 -7 17 C-8.0703125 15.15625 -8.0703125 15.15625 -9 13 C-7.3203245 9.26738777 -4.85787235 6.85787235 -2 4 C-0.76487921 1.86690808 -0.76487921 1.86690808 0 0 Z " fill="#1E0402" transform="translate(313,217)"/>
<path d="M0 0 C2.62565719 0.81042494 5.25053166 1.62324187 7.875 2.4375 C8.62136719 2.66759766 9.36773437 2.89769531 10.13671875 3.13476562 C15.7734375 4.88671875 15.7734375 4.88671875 18 6 C18 6.66 18 7.32 18 8 C16.10399631 7.68853528 14.20820413 7.37578283 12.3125 7.0625 C11.25675781 6.88847656 10.20101563 6.71445313 9.11328125 6.53515625 C6.39750396 6.06832879 3.69875765 5.55577384 1 5 C0.67 3.35 0.34 1.7 0 0 Z " fill="#1A0501" transform="translate(256,63)"/>
<path d="M0 0 C0 0.66 0 1.32 0 2 C-5.28 3.65 -10.56 5.3 -16 7 C-16 5.68 -16 4.36 -16 3 C-14.27318563 2.49193553 -12.54342021 1.99389533 -10.8125 1.5 C-9.84957031 1.2215625 -8.88664063 0.943125 -7.89453125 0.65625 C-5.14654124 0.03322392 -2.80401584 -0.12302812 0 0 Z " fill="#170400" transform="translate(218,309)"/>
<path d="M0 0 C0.66 0 1.32 0 2 0 C2 0.66 2 1.32 2 2 C2.78375 2.061875 3.5675 2.12375 4.375 2.1875 C5.24125 2.455625 6.1075 2.72375 7 3 C8.3125 5.5625 8.3125 5.5625 9 8 C8.34 8 7.68 8 7 8 C6.67 7.34 6.34 6.68 6 6 C3.47266765 5.34444881 3.47266765 5.34444881 1 5 C0.67 5.99 0.34 6.98 0 8 C-0.99 7.67 -1.98 7.34 -3 7 C-1.125 1.125 -1.125 1.125 0 0 Z " fill="#130501" transform="translate(176,230)"/>
<path d="M0 0 C0.66 0.66 1.32 1.32 2 2 C1.67238912 7.46018129 0.02344607 11.98537277 -2 17 C-2.33 17 -2.66 17 -3 17 C-3.23534715 11.23399495 -2.93384486 6.46026785 -1 1 C-0.67 0.67 -0.34 0.34 0 0 Z " fill="#190400" transform="translate(235,273)"/>
<path d="M0 0 C0.66 0 1.32 0 2 0 C1.53640488 4.72867022 0.9200845 8.18142796 -2 12 C-2.99 12.33 -3.98 12.66 -5 13 C-5 12.34 -5 11.68 -5 11 C-4.34 11 -3.68 11 -3 11 C-3.061875 10.113125 -3.12375 9.22625 -3.1875 8.3125 C-2.97935526 4.63527631 -2.21793417 2.90037545 0 0 Z " fill="#220801" transform="translate(229,295)"/>
<path d="M0 0 C10.55808656 1.92710706 10.55808656 1.92710706 15 4 C14.67 4.99 14.34 5.98 14 7 C12.03768185 6.40890417 10.0802195 5.80166895 8.125 5.1875 C6.48917969 4.68283203 6.48917969 4.68283203 4.8203125 4.16796875 C2 3 2 3 0 0 Z " fill="#220501" transform="translate(186,40)"/>
<path d="M0 0 C0.598125 0.78375 1.19625 1.5675 1.8125 2.375 C3.91085249 5.14574323 3.91085249 5.14574323 7 7 C6.67 8.65 6.34 10.3 6 12 C3.66666667 9.66666667 1.33333333 7.33333333 -1 5 C-0.625 2.375 -0.625 2.375 0 0 Z " fill="#220501" transform="translate(46,218)"/>
<path d="M0 0 C0.33 1.32 0.66 2.64 1 4 C-2.96 5.98 -2.96 5.98 -7 8 C-7.33 7.34 -7.66 6.68 -8 6 C-7.67 5.01 -7.34 4.02 -7 3 C-3.4375 1.3125 -3.4375 1.3125 0 0 Z " fill="#140601" transform="translate(195,262)"/>
<path d="M0 0 C1.2065625 0.0309375 1.2065625 0.0309375 2.4375 0.0625 C2.7675 2.3725 3.0975 4.6825 3.4375 7.0625 C1.625 6.875 1.625 6.875 -0.5625 6.0625 C-2.3125 3.5 -2.3125 3.5 -3.5625 1.0625 C-2.5625 0.0625 -2.5625 0.0625 0 0 Z " fill="#1C0502" transform="translate(60.5625,234.9375)"/>
<path d="M0 0 C2.87687481 0.22129806 4.53951144 0.63478494 6.8125 2.4375 C8 4 8 4 8 6 C7.34 6 6.68 6 6 6 C5.67 5.34 5.34 4.68 5 4 C2.08347826 3.83318891 2.08347826 3.83318891 -1 4 C-1.66 4.66 -2.32 5.32 -3 6 C-2.42655063 3.13275314 -2.1385485 2.1385485 0 0 Z " fill="#330802" transform="translate(178,258)"/>
<path d="M0 0 C3.48670834 1.1094072 6.77484237 2.26337666 10 4 C10 4.66 10 5.32 10 6 C5.16743695 5.58578031 3.17320782 3.53586014 0 0 Z " fill="#2F0301" transform="translate(83,268)"/>
<path d="M0 0 C0.99 0 1.98 0 3 0 C4.32 2.31 5.64 4.62 7 7 C5.68 6.67 4.36 6.34 3 6 C3 5.34 3 4.68 3 4 C1.68 3.34 0.36 2.68 -1 2 C-0.67 1.34 -0.34 0.68 0 0 Z " fill="#220802" transform="translate(94,217)"/>
<path d="M0 0 C1.14926266 0.95421808 2.29430541 1.91352045 3.4375 2.875 C4.07558594 3.40867188 4.71367187 3.94234375 5.37109375 4.4921875 C7 6 7 6 8 8 C5.6875 7.8125 5.6875 7.8125 3 7 C0 2.96551724 0 2.96551724 0 0 Z " fill="#120501" transform="translate(289,193)"/>
</svg>
