<?xml version="1.0" encoding="UTF-8"?>
<svg version="1.1" xmlns="http://www.w3.org/2000/svg" width="173" height="180">
<path d="M0 0 C0.93783829 -0.01424011 1.87567657 -0.02848022 2.8419342 -0.04315186 C3.86900482 -0.04336334 4.89607544 -0.04357483 5.95426941 -0.04379272 C7.03746964 -0.05547485 8.12066986 -0.06715698 9.23669434 -0.07919312 C12.82778194 -0.11286591 16.41845762 -0.1235253 20.00968933 -0.13119507 C22.50209706 -0.14336991 24.99450328 -0.15585572 27.48690796 -0.16864014 C32.71660909 -0.19114127 37.94620784 -0.20074876 43.1759491 -0.20297241 C48.54707346 -0.2056703 53.91737587 -0.23383079 59.28825378 -0.28500366 C65.76927267 -0.34584417 72.24952766 -0.37249198 78.73082542 -0.37308884 C81.2016126 -0.37847818 83.67240234 -0.39536508 86.14303017 -0.42393875 C89.60053609 -0.46058813 93.05527291 -0.45297243 96.51286316 -0.43441772 C97.53386108 -0.45487152 98.55485901 -0.47532532 99.60679626 -0.49639893 C106.4061284 -0.39610707 106.4061284 -0.39610707 109.37302017 1.93892574 C110.89997474 3.69404478 112.18561935 5.44393729 113.42765808 7.40786743 C114.27868103 8.58603027 114.27868103 8.58603027 115.14689636 9.78799438 C116.6243814 12.09339434 118.09621184 14.40160072 119.55265808 16.72036743 C120.06441589 17.51120728 120.57617371 18.30204712 121.10343933 19.11685181 C127.13341498 28.65785441 130.13310682 37.12527329 130.42765808 48.40786743 C130.44812195 49.12088013 130.46858582 49.83389282 130.4896698 50.56851196 C130.54899479 52.89003129 130.586819 55.21077315 130.61515808 57.53286743 C130.63497742 58.65350586 130.63497742 58.65350586 130.65519714 59.79678345 C130.65778532 61.6686802 130.55092686 63.54003206 130.42765808 65.40786743 C128.42765808 67.40786743 128.42765808 67.40786743 125.74525261 67.65396309 C124.02242152 67.65119771 124.02242152 67.65119771 122.26478577 67.64837646 C120.94942841 67.65112579 119.63407104 67.65387512 118.27885437 67.65670776 C116.81266694 67.64962896 115.34648043 67.64235933 113.8802948 67.63491821 C112.3430736 67.63435433 110.80585186 67.6346702 109.26863098 67.63580322 C105.08701773 67.63637865 100.90551848 67.62459376 96.72393179 67.61065531 C92.3570421 67.59817946 87.99015 67.59697994 83.62324524 67.59460449 C75.35011659 67.58838045 67.0770406 67.57195717 58.80393517 67.55190551 C49.38690485 67.52957522 39.96987206 67.51856031 30.55282187 67.50851464 C11.17773739 67.48759172 -8.19729804 67.45239784 -27.57234192 67.40786743 C-27.74763527 62.9280629 -27.87343527 58.45016188 -27.9568634 53.96792603 C-27.99169782 52.44901698 -28.03918679 50.93033602 -28.10041809 49.41226196 C-28.53044656 38.46279756 -27.24614626 31.52944161 -20.57234192 22.40786743 C-19.42686237 20.6701724 -18.28550478 18.92974449 -17.15046692 17.18521118 C-16.04538018 15.56898948 -14.93605101 13.95565975 -13.82234192 12.34536743 C-13.25902161 11.51843384 -12.69570129 10.69150024 -12.11531067 9.83950806 C-5.38184415 0.04175713 -5.38184415 0.04175713 0 0 Z " fill="#FEFEFE" transform="translate(36.57234191894531,11.592132568359375)"/>
<path d="M0 0 C1.71315226 0.00138269 1.71315226 0.00138269 3.46091366 0.00279331 C4.7664822 0.00141865 6.07205074 0.00004398 7.41718197 -0.00137234 C8.87755512 0.00216728 10.33792804 0.0058021 11.79830074 0.00952244 C13.3255224 0.0098043 14.8527442 0.0096466 16.37996578 0.00907993 C20.5388766 0.00879192 24.69775884 0.01468928 28.85666299 0.02165389 C33.19820497 0.02788677 37.53974753 0.02849118 41.8812933 0.0296793 C50.10839555 0.03279281 58.33548458 0.04100646 66.562581 0.05102879 C75.92639037 0.06218932 85.29020035 0.06770022 94.65401471 0.07272422 C113.92143722 0.08318906 133.18884741 0.10078888 152.45625973 0.12304783 C153.66976989 4.82304239 154.70895462 8.94773666 154.68672848 13.83007908 C154.68479488 14.82845798 154.68286129 15.82683689 154.6808691 16.8554697 C154.66862301 17.87189548 154.65637691 18.88832127 154.64375973 19.93554783 C154.64279293 21.48919041 154.64279293 21.48919041 154.6418066 23.0742197 C154.59721025 30.70019627 154.59721025 30.70019627 153.45625973 34.12304783 C101.64625973 34.12304783 49.83625973 34.12304783 -3.54374027 34.12304783 C-3.54374027 0.17142062 -3.54374027 0.17142062 0 0 Z " fill="#FEFEFD" transform="translate(12.543740272521973,90.87695217132568)"/>
<path d="M0 0 C1.71315226 0.00138269 1.71315226 0.00138269 3.46091366 0.00279331 C4.7664822 0.00141865 6.07205074 0.00004398 7.41718197 -0.00137234 C8.87755512 0.00216728 10.33792804 0.0058021 11.79830074 0.00952244 C13.3255224 0.0098043 14.8527442 0.0096466 16.37996578 0.00907993 C20.5388766 0.00879192 24.69775884 0.01468928 28.85666299 0.02165389 C33.19820497 0.02788677 37.53974753 0.02849118 41.8812933 0.0296793 C50.10839555 0.03279281 58.33548458 0.04100646 66.562581 0.05102879 C75.92639037 0.06218932 85.29020035 0.06770022 94.65401471 0.07272422 C113.92143722 0.08318906 133.18884741 0.10078888 152.45625973 0.12304783 C153.96648622 4.42520403 154.69683537 7.8249075 154.65157223 12.39648533 C154.64190426 14.12705173 154.64190426 14.12705173 154.63204098 15.89257908 C154.60690426 17.67728611 154.60690426 17.67728611 154.58125973 19.49804783 C154.57223629 20.71105564 154.56321285 21.92406345 154.55391598 23.17382908 C154.53042561 26.15710556 154.49757654 29.13997377 154.45625973 32.12304783 C150.5910949 33.02975468 147.01257715 33.24655588 143.04651546 33.24330235 C141.75227657 33.24467701 140.45803768 33.24605167 139.12457943 33.24746799 C137.69762302 33.24392929 136.27066685 33.24029449 134.8437109 33.23657322 C133.33560342 33.23629104 131.82749579 33.23644969 130.31938839 33.23701572 C126.23095983 33.23730248 122.14256064 33.23142539 118.0541389 33.22444177 C113.77935196 33.218188 109.50456433 33.21760283 105.22977352 33.21641636 C97.13738502 33.21330902 89.04501003 33.20510366 80.95262748 33.19506687 C71.73866209 33.18388721 62.52469605 33.17839061 53.31072557 33.17337143 C34.35922929 33.16292056 15.4077456 33.14533266 -3.54374027 33.12304783 C-3.5683942 28.58407078 -3.58657816 24.0451324 -3.59867191 19.50610447 C-3.60371167 17.96085017 -3.61054347 16.41560066 -3.61917973 14.87036228 C-3.63126103 12.65379754 -3.636972 10.43729564 -3.64139652 8.22070408 C-3.64655781 7.52590443 -3.65171909 6.83110477 -3.65703678 6.11525059 C-3.65723304 4.45075453 -3.60563156 2.78639284 -3.54374027 1.12304783 C-2.54374027 0.12304783 -2.54374027 0.12304783 0 0 Z " fill="#FEFEFE" transform="translate(12.543740272521973,136.87695217132568)"/>
<path d="M0 0 C2 2 2 2 2.1953125 3.9453125 C2.13020833 5.96354167 2.06510417 7.98177083 2 10 C-1.1875 10.875 -1.1875 10.875 -5 11 C-8 8.375 -8 8.375 -10 5 C-9.8125 2.125 -9.8125 2.125 -9 0 C-5.47955362 -1.17348213 -3.57539179 -0.83679382 0 0 Z " fill="#222221" transform="translate(153,58)"/>
<path d="M0 0 C2.125 6.625 2.125 6.625 1 10 C-1.73030993 11.2676439 -2.87352646 11.04311598 -5.75 10.0625 C-6.4925 9.711875 -7.235 9.36125 -8 9 C-9.32561852 2.61292897 -9.32561852 2.61292897 -7.9375 0 C-5.08594286 -1.47177143 -3.03295907 -0.74138999 0 0 Z " fill="#222120" transform="translate(154,148)"/>
<path d="M0 0 C4.875 1.875 4.875 1.875 6 3 C6.04092937 5.33297433 6.04241723 7.66705225 6 10 C2.78270009 11.0111514 1.39863447 11.17213761 -1.75 9.8125 C-4 8 -4 8 -4.8125 5.8125 C-4.874375 5.214375 -4.93625 4.61625 -5 4 C-3.35 2.68 -1.7 1.36 0 0 Z " fill="#232322" transform="translate(149,102)"/>
</svg>
