<?xml version="1.0" encoding="UTF-8"?>
<svg version="1.1" xmlns="http://www.w3.org/2000/svg" width="800" height="800">
<path d="M0 0 C1.87548828 2.11083984 1.87548828 2.11083984 3.4453125 5.0859375 C4.32364746 6.73094238 4.32364746 6.73094238 5.21972656 8.40917969 C8.23283894 14.42426158 11.09379743 20.50026646 13.875 26.625 C14.46036623 27.90260565 15.04630146 29.17995075 15.6328125 30.45703125 C16.69349566 32.76746745 17.7502275 35.07954528 18.80419922 37.39306641 C19.51346245 38.93931237 20.23922002 40.47844003 21 42 C31.69295026 41.30578517 42.31759011 40.27478087 52.96875 39.10546875 C70.88656277 37.18984946 88.63538233 36.8120117 106.64038086 36.81469727 C109.40216704 36.81477796 112.16378535 36.80791275 114.92553711 36.79418945 C138.15512202 36.6806937 161.19115066 37.6594262 184.25 40.625 C193.59688187 41.80866343 193.59688187 41.80866343 203 42 C203.32162109 41.29093506 203.64324219 40.58187012 203.97460938 39.85131836 C220.50260146 3.49739854 220.50260146 3.49739854 224 0 C233.66837867 0.00110168 243.12716659 2.30553457 252.5 4.4375 C253.27500854 4.61195648 254.05001709 4.78641296 254.84851074 4.96615601 C293.22626384 13.63749857 330.35859281 25.50857066 366.66796875 40.63916016 C369.74903896 41.89750463 372.84799034 43.0749642 375.96875 44.23046875 C387.28398536 48.57747869 393.19923743 53.14273565 398.859375 63.88623047 C400.49033295 66.90866923 402.31674565 69.79799153 404.13598633 72.7097168 C406.02618627 75.74445335 407.86781125 78.80752514 409.71240234 81.87011719 C410.87757571 83.79749155 412.05486695 85.71660596 413.23828125 87.6328125 C419.70659057 98.16371537 425.54903797 109.03027819 431.36230469 119.93310547 C432.90168836 122.81589284 434.45412379 125.69131298 436.0078125 128.56640625 C473.85716469 199.18199743 497.73694915 278.33109263 511 394 C511.09643799 395.22984619 511.19287598 396.45969238 511.29223633 397.72680664 C512.32937062 412.34892185 512.18729219 427.0213823 512.18530273 441.67211914 C512.18522196 444.74607286 512.19209977 447.81987598 512.20581055 450.89379883 C512.27528935 466.74320253 512.16503836 482.53576266 511.11328125 498.35546875 C510.99668404 500.14843132 510.99668404 500.14843132 510.87773132 501.97761536 C509.91113012 514.84203763 509.91113012 514.84203763 506.58984375 518.59228516 C506.04457031 518.98722168 505.49929688 519.3821582 504.9375 519.7890625 C504.31536621 520.24909668 503.69323242 520.70913086 503.05224609 521.18310547 C502.03638428 521.89684326 502.03638428 521.89684326 501 522.625 C500.2879541 523.14078613 499.5759082 523.65657227 498.84228516 524.18798828 C490.71657958 530.02241841 482.39113041 535.55701451 474 541 C473.14100098 541.55977539 472.28200195 542.11955078 471.39697266 542.69628906 C451.78825234 555.44605058 431.63851416 566.91162153 410.81591797 577.55615234 C408.14250841 578.92692954 405.47905635 580.31550318 402.81640625 581.70703125 C371.96376126 597.66962924 339.24827622 610.0396955 306 620 C288.08358172 598.8087545 274.96462085 573.37651691 262 549 C264.4584124 546.14468604 266.95029829 544.98882269 270.41796875 543.58203125 C271.49916992 543.13674072 272.58037109 542.6914502 273.69433594 542.23266602 C274.84708008 541.76401123 275.99982422 541.29535645 277.1875 540.8125 C295.15133418 533.34960159 311.97709852 524.39649097 329 515 C327.62941867 513.74515665 326.25328848 512.49637308 324.875 511.25 C324.10929688 510.55390625 323.34359375 509.8578125 322.5546875 509.140625 C321.71164062 508.43421875 320.86859375 507.7278125 320 507 C319.07123047 506.19546387 318.14246094 505.39092773 317.18554688 504.56201172 C314.00870847 502.58830579 314.00870847 502.58830579 310.30664062 503.85595703 C308.91084009 504.46226318 307.52779506 505.0984716 306.15625 505.7578125 C305.02630615 506.25853775 305.02630615 506.25853775 303.87353516 506.76937866 C302.25183221 507.48994434 300.63532576 508.22229682 299.02368164 508.96508789 C294.75203999 510.92838183 290.43743373 512.79250537 286.125 514.6640625 C285.26040161 515.04141541 284.39580322 515.41876831 283.50500488 515.80755615 C271.29772037 521.09664873 258.74318909 525.19127178 246 529 C244.22496094 529.53246338 244.22496094 529.53246338 242.4140625 530.07568359 C212.66195076 538.84077833 181.90043158 544.40851417 151 547 C150.00468262 547.0928125 149.00936523 547.185625 147.98388672 547.28125 C136.38141308 548.25991926 124.76154766 548.24263345 113.125 548.25 C111.46609741 548.25151062 111.46609741 548.25151062 109.77368164 548.25305176 C91.32763812 548.24173026 73.29799125 547.43125607 55 545 C53.31874023 544.7831958 53.31874023 544.7831958 51.60351562 544.56201172 C5.42304427 538.46181195 -39.94219242 525.45244594 -82.31982422 506.13818359 C-85.18846416 504.91996539 -87.99604529 503.83647454 -91 503 C-93.23248241 504.0860967 -93.23248241 504.0860967 -95 506.0625 C-98.21764978 509.23322572 -101.50679793 512.13696364 -105 515 C-83.56797881 526.89927599 -61.85406619 538.07213921 -39 547 C-39 550.97400211 -40.75096709 553.61326457 -42.625 557 C-42.99254395 557.67498535 -43.36008789 558.3499707 -43.73876953 559.04541016 C-44.48153283 560.40827563 -45.22678602 561.76978728 -45.97460938 563.12988281 C-46.83171149 564.69307381 -47.67533624 566.26364461 -48.515625 567.8359375 C-55.35363133 580.60807575 -62.72791022 593.10306189 -71 605 C-71.4237793 605.61101563 -71.84755859 606.22203125 -72.28417969 606.8515625 C-73.64096663 608.80176162 -75.00607456 610.74580551 -76.375 612.6875 C-77.01888672 613.60728638 -77.01888672 613.60728638 -77.67578125 614.5456543 C-80.76606181 618.8830309 -80.76606181 618.8830309 -83 620 C-85.34331777 619.40021313 -87.58450067 618.72870551 -89.875 617.96484375 C-90.5783548 617.73553665 -91.28170959 617.50622955 -92.00637817 617.26997375 C-94.34125277 616.50308512 -96.67100946 615.72206789 -99 614.9375 C-99.80387146 614.66812622 -100.60774292 614.39875244 -101.43597412 614.12121582 C-138.61388272 601.60944616 -174.97172225 585.53440675 -209 566 C-209.98145996 565.44070801 -210.96291992 564.88141602 -211.97412109 564.30517578 C-224.28229466 557.27774955 -236.40868031 550.03820114 -248.21142578 542.18896484 C-249.87438909 541.08350057 -251.54434537 539.98857576 -253.21484375 538.89453125 C-259.8308879 534.5388964 -266.33608572 530.03946078 -272.71484375 525.34375 C-274.72120174 523.8757115 -276.64076158 522.63740538 -278.81640625 521.40625 C-283.00105539 518.88068326 -284.68229565 517.20441197 -285.953125 512.38671875 C-286.47440359 508.90440021 -286.73085109 505.43638105 -286.86682129 501.91950989 C-286.99623903 499.08244708 -287.17743678 496.25110019 -287.36461258 493.41736031 C-287.99486908 483.63029517 -288.17970835 473.87547971 -288.203125 464.0703125 C-288.20736607 462.83531824 -288.20736607 462.83531824 -288.21169281 461.5753746 C-288.22654971 457.20372978 -288.23585968 452.8321167 -288.24023438 448.46044922 C-288.24458127 444.93560216 -288.25834473 441.4110051 -288.28125 437.88623047 C-288.47706367 407.07869389 -286.85001758 376.75137997 -282.3125 346.25 C-282.18750122 345.39354889 -282.06250244 344.53709778 -281.93371582 343.6546936 C-272.92986415 282.34125563 -255.42854379 222.51942875 -230 166 C-229.55366211 165.00436035 -229.10732422 164.0087207 -228.64746094 162.98291016 C-219.19501102 141.95171295 -208.96776483 121.60769675 -197.48828125 101.609375 C-196.17176599 99.30115402 -194.87565827 96.9838104 -193.59375 94.65625 C-188.66006087 85.70349504 -183.38107246 77.01456153 -177.82421875 68.43359375 C-176.12274372 65.80210603 -174.50849863 63.16706627 -173.01953125 60.41015625 C-167.69422801 51.08793667 -160.50727014 47.91265545 -151 44 C-148.98036954 43.13955574 -146.9608451 42.27886261 -144.94140625 41.41796875 C-112.22309469 27.65579398 -78.64725945 16.77077234 -44.25 8.125 C-42.85358276 7.77213425 -42.85358276 7.77213425 -41.42895508 7.41213989 C-32.18162749 5.08570201 -22.93422302 2.86932761 -13.546875 1.1796875 C-12.5286264 0.99444016 -12.5286264 0.99444016 -11.48980713 0.80545044 C-3.68199211 -0.52553082 -3.68199211 -0.52553082 0 0 Z M-71.16796875 281.30078125 C-88.79217916 302.12939355 -93.69254311 326.32485843 -92 353 C-90.81303132 362.91127878 -87.70840383 372.20480746 -83 381 C-82.52046875 381.95003906 -82.0409375 382.90007812 -81.546875 383.87890625 C-72.01167983 401.63010697 -56.96118725 413.6052404 -37.92578125 420.0390625 C-24.16015782 423.8898382 -7.18544065 422.8214566 5.73828125 416.2734375 C6.48464844 415.85320312 7.23101562 415.43296875 8 415 C9.00417969 414.45601562 10.00835937 413.91203125 11.04296875 413.3515625 C30.08197635 402.41473516 41.82971226 385.16816563 47.71313477 364.2265625 C53.83250061 340.98466004 50.87251546 317.05390237 39.6796875 295.828125 C36.18254628 289.93991513 32.24526604 283.50649618 27 279 C26.34 279 25.68 279 25 279 C25 278.34 25 277.68 25 277 C11.19217971 264.15977317 -6.32588984 258.2386991 -24.98828125 258.76171875 C-42.70103987 259.61519371 -59.13195686 268.52742809 -71.16796875 281.30078125 Z M193.55664062 282.67089844 C177.45675085 302.75602185 171.27885751 326.09834615 173.70214844 351.55761719 C176.13283372 371.48923654 185.0044329 388.74305558 199 403 C199.68707031 403.7115625 200.37414062 404.423125 201.08203125 405.15625 C212.50398599 416.17557554 228.7246401 421.98834175 244.4375 422.5 C264.24671169 421.83900441 281.00105052 413.75908832 294.61767578 399.50830078 C305.55579972 387.57334323 311.54570845 373.58145489 315 358 C315.1757959 357.21488037 315.3515918 356.42976074 315.53271484 355.62084961 C319.41496543 333.84657584 314.53190035 309.91611769 302.68359375 291.328125 C299.4671054 286.8802664 295.83926843 282.9144254 292 279 C291.26136719 278.22527344 290.52273438 277.45054687 289.76171875 276.65234375 C277.47572377 264.61413355 261.63550774 259.15029765 244.625 258.5625 C224.87844332 259.05411552 206.52209806 267.66149541 193.55664062 282.67089844 Z " fill="#FDFDFE" transform="translate(288,89)"/>
</svg>
