<?xml version="1.0" encoding="UTF-8"?>
<svg version="1.1" xmlns="http://www.w3.org/2000/svg" width="945" height="920">
<path d="M0 0 C3.59921813 3.44857533 7.14046408 6.95459464 10.66479492 10.47949219 C12.19237416 12.00486713 13.72783582 13.52200672 15.26367188 15.0390625 C20.90027705 20.64452028 26.13319774 26.36934831 31.07421875 32.60668945 C32.90847418 34.8862541 34.82313362 37.04313223 36.8125 39.1875 C97.28766305 106.71411487 131.15763242 203.0015581 135.68359375 347.4375 C135.3101406 353.31633166 134.71771085 359.15397209 134 365 C133.87109375 366.07813965 133.7421875 367.1562793 133.609375 368.26708984 C128.04357445 413.54719639 116.07927313 457.53542699 97 499 C96.56429687 499.95503418 96.12859375 500.91006836 95.6796875 501.89404297 C82.80810196 529.97536392 67.03387043 556.64659136 48 581 C47.07618038 582.20002646 46.15299619 583.40054238 45.23046875 584.6015625 C32.45325499 601.14764391 18.49353841 616.56808097 3.75 631.375 C3.00540527 632.12426758 2.26081055 632.87353516 1.49365234 633.64550781 C-3.17562067 638.30128881 -7.9881072 642.71681966 -13 647 C-14.00923143 647.87746979 -15.01835517 648.75506347 -16.02734375 649.6328125 C-37.46805316 667.99411801 -60.42824974 684.11509101 -85 698 C-85.94858887 698.54011719 -86.89717773 699.08023438 -87.87451172 699.63671875 C-153.37955664 736.74706211 -153.37955664 736.74706211 -175.59765625 732.50390625 C-181.70996634 730.74475359 -185.63675818 728.1313305 -189.10557556 722.70808411 C-191.94607462 716.82251802 -191.5475104 710.76949383 -191.49829102 704.3581543 C-191.50212018 702.98879914 -191.5077443 701.61944802 -191.51501465 700.25010681 C-191.52692301 697.31231346 -191.52650812 694.37487783 -191.51642036 691.43707848 C-191.5007597 686.77260565 -191.51461072 682.10849409 -191.53245544 677.44404602 C-191.56322393 668.36566147 -191.56478145 659.28738854 -191.56280518 650.20896149 C-191.56141154 638.69425683 -191.57212777 627.17964039 -191.6113829 615.66499835 C-191.62374748 611.79731943 -191.62963501 607.92986123 -191.61987495 604.06217003 C-191.54020053 571.95094959 -193.83455582 540.19223803 -216 515 C-217.33739362 513.33658969 -218.67120794 511.67028956 -220 510 C-219.15743652 509.88519287 -218.31487305 509.77038574 -217.44677734 509.65209961 C-157.91928553 501.41323715 -97.70597935 485.19098231 -59.625 435.125 C-25.72808547 388.94314554 -15.14147203 322.21507549 -23.1875 266.25 C-23.70401926 263.14433039 -24.32064138 260.07383028 -25 257 C-25.16628906 256.21931152 -25.33257813 255.43862305 -25.50390625 254.63427734 C-30.9119712 229.98251461 -41.63552232 207.50473259 -57.140625 187.6484375 C-57.60025635 187.05216553 -58.0598877 186.45589355 -58.53344727 185.84155273 C-59.57225809 184.53711623 -60.65317471 183.26571032 -61.76147461 182.01977539 C-63.42204315 180.06487514 -64.82457711 178.28087342 -66 176 C-65.65928397 172.94017157 -65.25929462 171.38455594 -64.0625 168.6875 C-63.53913559 167.27201077 -63.02647179 165.85252852 -62.5234375 164.4296875 C-62.26143555 163.6984668 -61.99943359 162.96724609 -61.72949219 162.21386719 C-51.55402949 131.33331304 -57.14694672 89.99753024 -71 61 C-84.61910358 60.51648153 -96.90169168 61.11849699 -110 65 C-110.76570312 65.2254248 -111.53140625 65.45084961 -112.3203125 65.68310547 C-138.4257956 73.61490757 -164.78366465 86.93025491 -186.26953125 103.8046875 C-193.47285135 106.95807227 -203.15822548 102.90337422 -210.4375 101.1875 C-219.66900669 99.08242333 -228.8932192 97.20638897 -238.25 95.75 C-239.66236938 95.52413208 -239.66236938 95.52413208 -241.10327148 95.29370117 C-260.51921361 92.39815578 -279.95812352 91.62168869 -299.5625 91.6875 C-300.6975296 91.68932281 -301.8325592 91.69114563 -303.00198364 91.69302368 C-320.8449342 91.74110522 -338.32932507 92.3435408 -356 95 C-357.22106445 95.18224121 -358.44212891 95.36448242 -359.70019531 95.55224609 C-373.12278068 97.612625 -386.41747872 100.08068379 -399.57055664 103.47607422 C-409.3357688 105.97604911 -409.3357688 105.97604911 -413.890625 103.3046875 C-415.01561361 102.50202613 -416.13498721 101.69146256 -417.25 100.875 C-450.16177544 77.97111659 -488.38785514 59.88677369 -529 61 C-541.65169376 91.73796388 -548.90404991 131.66609638 -537.3359375 163.890625 C-534.02540273 173.13683023 -534.02540273 173.13683023 -534 177 C-536.07265797 181.3432079 -539.06441673 184.24185886 -542.50830078 187.48535156 C-545.05982402 190.07612901 -547.01479184 193.02810415 -549 196.0625 C-549.40911621 196.68568115 -549.81823242 197.3088623 -550.23974609 197.95092773 C-581.96179224 247.33286152 -583.74979839 307.25072535 -571.6328125 363.38671875 C-565.89935745 387.7152626 -556.9656289 411.79640098 -542 432 C-541.40348633 432.81428467 -541.40348633 432.81428467 -540.79492188 433.64501953 C-505.66415767 481.25927285 -449.67291723 499.61670402 -393.18789673 508.2076416 C-389.12717817 508.81842631 -385.0644383 509.41442535 -381 510 C-381 510.66 -381 511.32 -381 512 C-381.66 512 -382.32 512 -383 512 C-383.25523437 512.57363281 -383.51046875 513.14726563 -383.7734375 513.73828125 C-385.12880953 516.23751821 -386.73743673 518.0630513 -388.625 520.1875 C-397.15138312 530.69820501 -404.02314618 545.99566952 -405.33984375 559.48046875 C-405.77501303 563.14832411 -406.23663816 565.74386892 -408 569 C-413.01866138 572.1651435 -418.28628311 573.56318105 -424 575 C-425.4446233 575.39882832 -426.8886481 575.7998316 -428.33203125 576.203125 C-452.9137048 582.84077178 -477.30370481 581.36783876 -499.9609375 569.44140625 C-513.82972204 561.1559003 -524.38750236 549.11881204 -533.17724609 535.77270508 C-547.3139237 514.31799914 -564.73015453 494.62646764 -591 489 C-594.60099711 488.75440135 -598.20394974 488.76890531 -601.8125 488.75 C-602.78509766 488.729375 -603.75769531 488.70875 -604.75976562 488.6875 C-610.64347888 488.65563155 -614.80033716 489.19090521 -620 492 C-621.32771855 493.13307539 -621.32771855 493.13307539 -621.5 496.0625 C-620.62423095 502.9591813 -615.55342433 506.9424844 -610.25 511.0625 C-607.09458819 513.33121663 -603.81397971 515.34724722 -600.5 517.375 C-578.61195438 531.22438237 -564.30616732 559.96401015 -554.4375 583.25 C-545.23403257 604.72732454 -530.28434601 617.86680784 -508.6640625 626.6875 C-492.69150642 632.40901263 -476.10286005 634.38334397 -459.1875 634.3125 C-458.53056152 634.31200653 -457.87362305 634.31151306 -457.19677734 634.31100464 C-443.66857335 634.28027722 -430.38689992 632.93585072 -417 631 C-414.66669288 630.66648322 -412.33336218 630.33313137 -410 630 C-409.90717546 641.3355387 -409.83617169 652.67098644 -409.79275131 664.00682831 C-409.77190795 669.27096516 -409.7436496 674.5348413 -409.69824219 679.79882812 C-409.65466865 684.88223318 -409.63083844 689.965388 -409.62049103 695.04896545 C-409.61312031 696.9849898 -409.59872702 698.92100099 -409.57707977 700.85691833 C-409.54789272 703.57613341 -409.54405036 706.29432448 -409.54589844 709.01367188 C-409.53151733 709.80777466 -409.51713623 710.60187744 -409.50231934 711.42004395 C-409.54769663 717.621275 -411.09099883 723.1325771 -415.6144371 727.591362 C-421.26480547 732.20212967 -427.81527273 733.31889276 -434.94921875 732.83984375 C-441.92153431 732.12598653 -448.07943253 729.74816464 -454.5625 727.1875 C-455.8395918 726.69114201 -457.11669156 726.19480452 -458.39379883 725.69848633 C-494.47396787 711.54702626 -529.71817076 693.25198781 -560.30517578 669.31396484 C-562.89587799 667.30544291 -565.54590218 665.37833585 -568.1875 663.4375 C-577.4166128 656.51253476 -586.09595471 648.91986815 -594.625 641.15625 C-596.17622694 639.74789922 -597.73835873 638.35144165 -599.3125 636.96875 C-609.84228126 627.68591652 -619.97414142 617.76008468 -629 607 C-629.90735883 605.95442962 -630.81637826 604.91029925 -631.7265625 603.8671875 C-638.45755749 596.13174428 -644.88585511 588.23321426 -651 580 C-651.49612793 579.33516602 -651.99225586 578.67033203 -652.50341797 577.98535156 C-711.19347816 499.04550453 -739.71913574 403.55826374 -734.07788086 254.46096802 C-724.20880432 188.57907252 -700.3126272 124.70621374 -662 70 C-661.51063965 69.29955566 -661.0212793 68.59911133 -660.51708984 67.87744141 C-650.84481723 54.10251065 -640.61041641 40.79186882 -629.1953125 28.40625 C-627.99053787 27.08571411 -626.7934668 25.75738259 -625.63476562 24.39624023 C-620.37240159 18.23292985 -614.69518582 12.50906629 -608.96777344 6.7824707 C-607.26205402 5.07456944 -605.56450973 3.35881955 -603.8671875 1.64257812 C-597.21913778 -5.03921405 -590.39178333 -11.14037914 -583 -17 C-581.90982896 -17.92297336 -580.82520694 -18.85260566 -579.75 -19.79296875 C-565.49230872 -32.20769141 -550.04549552 -43.03369824 -534 -53 C-533.25766113 -53.46583496 -532.51532227 -53.93166992 -531.75048828 -54.41162109 C-448.24006887 -106.62991465 -347.27518603 -129.03140369 0 0 Z " fill="#FEFEFE" transform="translate(777,146)"/>
</svg>
