<?xml version="1.0" encoding="UTF-8"?>
<svg version="1.1" xmlns="http://www.w3.org/2000/svg" width="887" height="716">
<path d="M0 0 C1.51347906 1.48948172 3.00901918 2.9948689 4.50024414 4.5065918 C5.32266602 5.31870117 6.14508789 6.13081055 6.99243164 6.9675293 C44.85409734 46.40130569 42.08724728 122.10547998 44.39309692 173.16049194 C44.46875288 174.81705793 44.54756668 176.47348115 44.62863159 178.12979126 C45.61283633 198.48368898 45.70198413 218.82168731 45.68774414 239.1940918 C45.68747726 240.05136745 45.68721039 240.90864311 45.68693542 241.79189682 C45.67590786 270.06925939 45.37971846 298.28132071 43.50024414 326.5065918 C43.4019632 327.99017181 43.4019632 327.99017181 43.30169678 329.50372314 C35.01055414 452.92288679 35.01055414 452.92288679 0.01586914 486.3269043 C-60.15004083 538.45823622 -179.07449469 522.67390489 -594.78321838 518.80711365 C-694.00537326 511.61499869 -694.00537326 511.61499869 -725.90844727 476.36401367 C-758.21402608 438.65599839 -757.3114641 378.3157987 -760.18725586 331.3190918 C-760.24810364 330.32693665 -760.30895142 329.33478149 -760.37164307 328.31256104 C-760.79003456 321.37923677 -761.1625713 314.44432908 -761.49975586 307.5065918 C-761.54921356 306.49187805 -761.59867126 305.47716431 -761.64962769 304.43170166 C-762.59853378 284.20849819 -762.70185193 263.99716638 -762.68725586 243.7565918 C-762.68698898 242.92431313 -762.68672211 242.09203445 -762.68644714 241.23453522 C-762.67522941 213.28487608 -762.32953766 185.40583258 -760.49975586 157.5065918 C-760.43423523 156.50080078 -760.3687146 155.49500977 -760.3012085 154.45874023 C-752.94585976 42.98348133 -752.94585976 42.98348133 -725.49975586 8.5065918 C-725.03698242 7.90073242 -724.57420898 7.29487305 -724.09741211 6.6706543 C-704.74711515 -17.95699638 -673.99792439 -25.83807396 -644.49975586 -29.4934082 C-584.38717377 -36.63417142 -523.51449528 -38.16301067 -463.03979492 -39.38012695 C-459.16141016 -39.45824215 -455.28320687 -39.54232951 -451.4050293 -39.63012695 C-367.80789927 -41.51072805 -284.1371045 -40.77175898 0 0 Z M-439.49975586 121.5065918 C-439.49975586 201.3665918 -439.49975586 281.2265918 -439.49975586 363.5065918 C-435.73564593 362.00094782 -432.46435522 360.47457811 -428.94897461 358.5222168 C-427.87075439 357.92417236 -426.79253418 357.32612793 -425.68164062 356.70996094 C-424.51670147 356.05909598 -423.35191041 355.40796589 -422.18725586 354.7565918 C-421.58984589 354.42368134 -420.99243591 354.09077087 -420.37692261 353.74777222 C-411.06454261 348.55739458 -401.82705843 343.24745049 -392.63330078 337.84936523 C-384.95516864 333.34297813 -377.23576877 328.91246299 -369.49975586 324.5065918 C-360.69957048 319.49364141 -351.92602851 314.4386611 -343.18725586 309.3190918 C-334.54871523 304.25904953 -325.85802891 299.3013093 -317.13208008 294.39379883 C-310.32176301 290.55597259 -303.55754495 286.64496752 -296.81225586 282.6940918 C-285.24865492 275.92252869 -273.62149715 269.26529207 -261.97923279 262.63038635 C-255.53172213 258.95592182 -249.08890808 255.2732487 -242.64611816 251.59051514 C-239.6443606 249.87476964 -236.64236124 248.15944741 -233.64038086 246.4440918 C-232.64554688 245.87561523 -231.65071289 245.30713867 -230.62573242 244.72143555 C-229.92416016 244.32053711 -229.22258789 243.91963867 -228.49975586 243.5065918 C-230.89945267 240.85093392 -233.46419775 239.22660627 -236.56616211 237.4597168 C-238.11013672 236.57509766 -238.11013672 236.57509766 -239.68530273 235.67260742 C-240.79969727 235.04032227 -241.9140918 234.40803711 -243.06225586 233.7565918 C-244.23377047 233.08717833 -245.40498962 232.41724754 -246.57592773 231.74682617 C-249.0091942 230.35419183 -251.44371818 228.96379432 -253.87915039 227.57495117 C-259.43133179 224.40629414 -264.96456248 221.20479739 -270.49975586 218.0065918 C-272.66633295 216.75643655 -274.83299993 215.50643706 -276.99975586 214.2565918 C-307.33308919 196.7565918 -337.66642253 179.2565918 -367.99975586 161.7565918 C-369.07241699 161.13776123 -370.14507812 160.51893066 -371.25024414 159.88134766 C-373.41532657 158.63223662 -375.58036568 157.3830505 -377.74536133 156.13378906 C-383.18591292 152.9945687 -388.62722802 149.85668617 -394.07006836 146.72143555 C-396.25496779 145.46232721 -398.43986365 144.20321266 -400.62475586 142.9440918 C-401.68500977 142.33364014 -402.74526367 141.72318848 -403.83764648 141.09423828 C-409.37190758 137.90376546 -414.89385155 134.69371598 -420.39819336 131.4519043 C-421.50662598 130.80036377 -422.61505859 130.14882324 -423.75708008 129.47753906 C-425.8781308 128.229214 -427.99704062 126.97724231 -430.11352539 125.72119141 C-431.05566895 125.1669751 -431.9978125 124.61275879 -432.96850586 124.04174805 C-433.79801758 123.5506958 -434.6275293 123.05964355 -435.48217773 122.55371094 C-437.4167625 121.35304094 -437.4167625 121.35304094 -439.49975586 121.5065918 Z " fill="#FEFEFE" transform="translate(799.499755859375,117.493408203125)"/>
</svg>
